<svg width="20" height="21" viewBox="0 0 20 21" fill="none" xmlns="http://www.w3.org/2000/svg">
<path d="M10 2.625C7.81666 2.625 6.04166 4.4 6.04166 6.58333C6.04166 8.725 7.71666 10.4583 9.9 10.5333C9.96666 10.525 10.0333 10.525 10.0833 10.5333C10.1 10.5333 10.1083 10.5333 10.125 10.5333C10.1333 10.5333 10.1333 10.5333 10.1417 10.5333C12.275 10.4583 13.95 8.725 13.9583 6.58333C13.9583 4.4 12.1833 2.625 10 2.625Z" fill="#EE7D46"/>
<path d="M14.2333 12.75C11.9083 11.2 8.11666 11.2 5.775 12.75C4.71666 13.4583 4.13333 14.4167 4.13333 15.4417C4.13333 16.4667 4.71666 17.4167 5.76666 18.1167C6.93333 18.9 8.46666 19.2917 10 19.2917C11.5333 19.2917 13.0667 18.9 14.2333 18.1167C15.2833 17.4083 15.8667 16.4583 15.8667 15.425C15.8583 14.4 15.2833 13.45 14.2333 12.75Z" fill="#EE7D46"/>
</svg>
