<svg width="20" height="21" viewBox="0 0 20 21" fill="none" xmlns="http://www.w3.org/2000/svg">
<path d="M18.3333 8.01732V4.23398C18.3333 3.05898 17.8 2.58398 16.475 2.58398H13.1083C11.7833 2.58398 11.25 3.05898 11.25 4.23398V8.00898C11.25 9.19232 11.7833 9.65898 13.1083 9.65898H16.475C17.8 9.66732 18.3333 9.19232 18.3333 8.01732Z" fill="#0F0F0F"/>
<path d="M18.3333 17.3923V14.0257C18.3333 12.7007 17.8 12.1673 16.475 12.1673H13.1083C11.7833 12.1673 11.25 12.7007 11.25 14.0257V17.3923C11.25 18.7173 11.7833 19.2507 13.1083 19.2507H16.475C17.8 19.2507 18.3333 18.7173 18.3333 17.3923Z" fill="#0F0F0F"/>
<path d="M8.75 8.01732V4.23398C8.75 3.05898 8.21666 2.58398 6.89166 2.58398H3.525C2.2 2.58398 1.66666 3.05898 1.66666 4.23398V8.00898C1.66666 9.19232 2.2 9.65898 3.525 9.65898H6.89166C8.21666 9.66732 8.75 9.19232 8.75 8.01732Z" fill="#0F0F0F"/>
<path d="M8.75 17.3923V14.0257C8.75 12.7007 8.21666 12.1673 6.89166 12.1673H3.525C2.2 12.1673 1.66666 12.7007 1.66666 14.0257V17.3923C1.66666 18.7173 2.2 19.2507 3.525 19.2507H6.89166C8.21666 19.2507 8.75 18.7173 8.75 17.3923Z" fill="#0F0F0F"/>
</svg>
